<?xml version="1.0" encoding="UTF-8"?>
<svg width="131px" height="140px" viewBox="0 0 131 140" version="1.1" xmlns="http://www.w3.org/2000/svg" xmlns:xlink="http://www.w3.org/1999/xlink">
    <title>53FD8256-4BE7-4E95-BBFA-02DF0439EB9C</title>
    <defs>
        <filter x="-36.8%" y="-36.2%" width="173.7%" height="172.8%" filterUnits="objectBoundingBox" id="filter-1">
            <feOffset dx="0" dy="8" in="SourceAlpha" result="shadowOffsetOuter1"></feOffset>
            <feGaussianBlur stdDeviation="5" in="shadowOffsetOuter1" result="shadowBlurOuter1"></feGaussianBlur>
            <feColorMatrix values="0 0 0 0 0   0 0 0 0 0   0 0 0 0 0  0 0 0 0.3 0" type="matrix" in="shadowBlurOuter1" result="shadowMatrixOuter1"></feColorMatrix>
            <feMerge>
                <feMergeNode in="shadowMatrixOuter1"></feMergeNode>
                <feMergeNode in="SourceGraphic"></feMergeNode>
            </feMerge>
        </filter>
        <filter x="-31.7%" y="-84.3%" width="163.4%" height="268.5%" filterUnits="objectBoundingBox" id="filter-2">
            <feOffset dx="0" dy="10" in="SourceAlpha" result="shadowOffsetOuter1"></feOffset>
            <feGaussianBlur stdDeviation="5" in="shadowOffsetOuter1" result="shadowBlurOuter1"></feGaussianBlur>
            <feColorMatrix values="0 0 0 0 0   0 0 0 0 0   0 0 0 0 0  0 0 0 0.3 0" type="matrix" in="shadowBlurOuter1" result="shadowMatrixOuter1"></feColorMatrix>
            <feMerge>
                <feMergeNode in="shadowMatrixOuter1"></feMergeNode>
                <feMergeNode in="SourceGraphic"></feMergeNode>
            </feMerge>
        </filter>
    </defs>
    <g id="Visueel-ontwerp" stroke="none" stroke-width="1" fill="none" fill-rule="evenodd">
        <g id="Home-04" transform="translate(-1.000000, -384.000000)">
            <g id="Blaadjes" transform="translate(8.245816, 383.539559)">
                <g id="Group-10-Copy" filter="url(#filter-1)" transform="translate(51.500000, 64.326087) scale(-1, 1) rotate(-93.000000) translate(-51.500000, -64.326087) translate(4.000000, 16.000000)">
                    <path d="M66.2798478,71.3810174 C66.7779783,71.9799304 67.2158043,72.6531913 67.3884565,73.4115391 C67.6362826,74.4953652 67.2835435,75.6956696 66.4888478,76.4738435 C65.968413,76.982713 65.170413,77.3123217 64.5070652,77.0116261 C64.2658478,76.9025826 64.0651087,76.7191913 63.8850217,76.5250609 C63.0903261,75.6675826 62.8458043,74.474713 62.1064565,73.5974087 C60.5682826,71.7684522 58.2882826,71.072887 56.3188913,69.8882783 C55.784413,69.5677565 55.3598043,68.9671913 55.4581087,68.3517565 C55.6266304,67.2993217 56.4205,67.0531478 57.3448913,67.1142783 C58.3799783,67.1844957 59.5778043,67.6429739 60.2328913,67.786713 C62.5773261,68.3005391 64.7408478,69.5231478 66.2798478,71.3810174 M32.2178043,86.0415826 C31.4321957,85.9804522 30.7944565,85.3022348 30.5755435,84.5455391 C30.3392826,83.7244087 30.3971087,81.3180174 31.4371522,81.0354957 C33.3330217,80.6852348 33.4627174,84.373713 33.1256739,85.380713 C33.0612391,85.5764957 32.9745,85.7764087 32.8109348,85.9011478 C32.6457174,86.0275391 32.4251522,86.0581043 32.2178043,86.0415826 M17.6068043,85.6425826 C18.4741957,86.2034957 18.8269348,87.7697565 18.5840652,88.6941478 C18.3205435,89.6920609 17.1516304,90.6255391 16.1016739,90.2397565 C15.9463696,90.1827565 15.7960217,90.0951913 15.7035,89.9580609 C15.3408478,89.4186261 15.7976739,88.9155391 15.883587,88.3942783 C15.9752826,87.8408 15.8596304,87.3104522 15.8868913,86.7239304 C15.9348043,85.6822348 16.701413,85.056887 17.6068043,85.6425826 M39.7277609,84.848713 C40.0160652,84.6884522 40.3093261,84.5884957 40.6001087,84.5414087 C43.8433261,84.0176696 46.9799783,90.0398435 42.6471522,90.4991478 C40.412587,90.7370609 37.3147609,86.2034957 39.7277609,84.848713 M11.0427174,95.2466696 C14.0273696,95.563887 18.2057174,95.7695826 21.0623261,94.1190609 C22.8557609,93.0814957 24.2543261,90.9518435 23.8107174,89.065887 C23.5463696,87.945713 22.7120217,87.1146696 21.9280652,86.3150174 C21.1449348,85.5153652 20.3502391,84.6256696 20.1998913,83.4741043 C20.0503696,82.321713 20.8491957,80.8760609 22.0296739,80.7529739 C22.9548913,80.6563217 23.6727609,81.3576696 24.2601087,82.0111043 C25.801587,83.7252348 27.3538043,85.5071043 28.1295,87.7243217 C28.9051957,89.9415391 28.7606304,92.713887 27.1538913,94.6981478 C32.1351957,95.6985391 39.520413,96.912887 44.6611522,95.0938435 C49.095587,93.5424522 52.0802391,88.7090174 50.1471957,84.1019304 C49.1195435,81.6542348 41.7078913,75.7493652 45.8457609,73.0315391 C46.9973261,72.2756696 48.5842391,72.4830174 49.7531522,73.2108 C50.9220652,73.9394087 51.7506304,75.0967565 52.4792391,76.2664957 C53.9645435,78.6472783 55.1656739,81.1982348 56.1462391,83.8268435 C56.8781522,85.7904522 57.4911087,87.9548 56.8575,89.9514522 C64.4459348,88.8965391 70.832413,87.3468 77.3816304,82.8991478 C81.7136304,79.9566261 86.9080652,71.6346261 85.7969783,66.5583217 C85.5450217,65.4100609 84.8957174,64.4294957 84.1985,63.5232783 C82.4141522,61.2003217 79.7640652,60.3411913 77.0545,59.3986261 C74.6811522,58.5733652 67.5850652,58.8542348 68.7556304,54.5569304 C69.6197174,51.3831043 73.3313261,52.0604957 75.3825,52.6379304 C76.9991522,53.0922783 88.3256304,56.8014087 87.2046304,59.2970174 C90.3561522,52.282713 88.8758043,44.0449739 84.1935435,38.8001478 C79.7483696,33.8221478 73.0347609,30.6483217 66.0295435,30.9316696 C72.5143261,23.5332348 83.3600217,12.9568435 94.297413,2.31353913 L93.4845435,1.52462609 L64.9110217,30.9630609 L61.4117174,34.5681043 L2.22506522,95.5465391 C2.22506522,95.5465391 7.39719565,94.8575826 11.0427174,95.2466696" id="Fill-4" fill="#90BF82"></path>
                    <path d="M27.6550783,24.0040217 C29.8549478,25.2621522 31.1312522,27.9262826 30.854513,30.4268478 C30.7438174,31.4222826 29.7112087,31.9691522 28.8933826,31.273587 C27.2874696,29.9080652 25.7972087,28.0097174 25.1239478,26.010587 C24.6398609,24.5707174 26.389513,23.2803696 27.6550783,24.0040217 M8.70464348,83.068413 C7.40851304,82.2183696 6.67577391,83.5450652 5.41681739,83.2063696 C4.7509913,83.0271087 4.39329565,82.1060217 4.95503478,81.5996304 C6.1256,80.5430652 9.00203478,81.1138913 8.82690435,82.9948913 C8.82194783,83.0510652 8.76164348,83.1047609 8.70464348,83.068413 M13.7974696,21.1441087 C11.7578609,24.6095435 10.1560783,28.4178043 9.2159913,32.3318043 C8.41716522,35.6510217 8.05616522,39.3725435 9.29612174,42.6314565 C13.8222522,40.887587 19.4247739,43.3518043 22.4408174,46.8081522 C23.6411217,48.1852391 24.7464261,50.1612391 23.8170783,51.7324565 C22.8100783,53.4366739 20.1897304,53.2128043 18.5243391,52.1438478 C16.8581217,51.0748913 15.5727304,49.4128043 13.7429478,48.6569348 C11.0771652,47.5557609 7.89094783,48.7428478 5.8976,50.8270652 C3.90425217,52.9112826 2.87329565,55.7199783 2.05216522,58.4848913 C1.00468696,62.0114565 0.20586087,66.0138478 0.771730435,69.6907609 C5.89346957,67.6090217 11.055687,69.6957174 15.0985565,73.1190217 C15.7693391,73.6865435 16.4913391,74.3821087 16.4219478,75.3106304 C16.1617304,78.7620217 12.2171652,76.456413 10.8756,75.6080217 C7.17555652,73.2718478 4.09342609,75.5105435 2.55525217,79.0866739 C1.40451304,81.7631957 1.35825217,84.3125 1.66225217,86.925413 C1.84316522,88.4842391 2.14964348,90.0645435 2.41894783,91.7084565 C2.56103478,92.5717174 2.87494783,94.8608043 2.22812174,95.5439783 C2.37929565,95.3878478 61.4122957,34.5680217 61.4122957,34.5680217 L64.9107739,30.9629783 L93.4842957,1.52536957 L92.6722522,0.736456522 C82.3593826,11.9861087 72.1117739,23.142413 64.9099478,29.8436304 C64.9842957,22.8334565 61.6113826,16.2181522 56.5028609,11.9225 C53.3819043,9.29967391 49.360513,7.83997826 45.3036,7.63758696 C43.1615565,7.53102174 41.1211217,8.02254348 39.0005565,8.09771739 C38.0918609,8.13076087 33.9762957,8.79906522 33.5855565,8.5091087 C37.6672522,11.210413 40.8410783,15.2598913 42.4874696,19.8694565 C42.7914696,20.7228043 42.9889043,21.8157174 42.310687,22.4146304 C41.3689478,23.2465 39.9612957,22.2527174 39.1104261,21.3299783 C36.8601652,18.8938478 34.4413826,16.5419783 31.518687,14.9765435 C28.5951652,13.4111087 25.0834696,12.6998478 21.9187304,13.6886739 C18.3285565,14.8105 15.7040783,17.9025435 13.7974696,21.1441087" id="Fill-6" fill="#90BF82"></path>
                    <path d="M27.6550783,24.0040217 C29.8549478,25.2621522 31.1312522,27.9262826 30.854513,30.4268478 C30.7438174,31.4222826 29.7112087,31.9691522 28.8933826,31.273587 C27.2874696,29.9080652 25.7972087,28.0097174 25.1239478,26.010587 C24.6398609,24.5707174 26.389513,23.2803696 27.6550783,24.0040217 M8.70464348,83.068413 C7.40851304,82.2183696 6.67577391,83.5450652 5.41681739,83.2063696 C4.7509913,83.0271087 4.39329565,82.1060217 4.95503478,81.5996304 C6.1256,80.5430652 9.00203478,81.1138913 8.82690435,82.9948913 C8.82194783,83.0510652 8.76164348,83.1047609 8.70464348,83.068413 M13.7974696,21.1441087 C11.7578609,24.6095435 10.1560783,28.4178043 9.2159913,32.3318043 C8.41716522,35.6510217 8.05616522,39.3725435 9.29612174,42.6314565 C13.8222522,40.887587 19.4247739,43.3518043 22.4408174,46.8081522 C23.6411217,48.1852391 24.7464261,50.1612391 23.8170783,51.7324565 C22.8100783,53.4366739 20.1897304,53.2128043 18.5243391,52.1438478 C16.8581217,51.0748913 15.5727304,49.4128043 13.7429478,48.6569348 C11.0771652,47.5557609 7.89094783,48.7428478 5.8976,50.8270652 C3.90425217,52.9112826 2.87329565,55.7199783 2.05216522,58.4848913 C1.00468696,62.0114565 0.20586087,66.0138478 0.771730435,69.6907609 C5.89346957,67.6090217 11.055687,69.6957174 15.0985565,73.1190217 C15.7693391,73.6865435 16.4913391,74.3821087 16.4219478,75.3106304 C16.1617304,78.7620217 12.2171652,76.456413 10.8756,75.6080217 C7.17555652,73.2718478 4.09342609,75.5105435 2.55525217,79.0866739 C1.40451304,81.7631957 1.35825217,84.3125 1.66225217,86.925413 C1.84316522,88.4842391 2.14964348,90.0645435 2.41894783,91.7084565 C2.56103478,92.5717174 2.87494783,94.8608043 2.22812174,95.5439783 C2.37929565,95.3878478 61.4122957,34.5680217 61.4122957,34.5680217 L64.9107739,30.9629783 L93.4842957,1.52536957 L92.6722522,0.736456522 C82.3593826,11.9861087 72.1117739,23.142413 64.9099478,29.8436304 C64.9842957,22.8334565 61.6113826,16.2181522 56.5028609,11.9225 C53.3819043,9.29967391 49.360513,7.83997826 45.3036,7.63758696 C43.1615565,7.53102174 41.1211217,8.02254348 39.0005565,8.09771739 C38.0918609,8.13076087 33.9762957,8.79906522 33.5855565,8.5091087 C37.6672522,11.210413 40.8410783,15.2598913 42.4874696,19.8694565 C42.7914696,20.7228043 42.9889043,21.8157174 42.310687,22.4146304 C41.3689478,23.2465 39.9612957,22.2527174 39.1104261,21.3299783 C36.8601652,18.8938478 34.4413826,16.5419783 31.518687,14.9765435 C28.5951652,13.4111087 25.0834696,12.6998478 21.9187304,13.6886739 C18.3285565,14.8105 15.7040783,17.9025435 13.7974696,21.1441087" id="Fill-8" fill="#2BAC70"></path>
                </g>
                <g id="Group-16-Copy" filter="url(#filter-2)" transform="translate(88.500000, 66.145161) scale(-1, 1) rotate(-71.000000) translate(-88.500000, -66.145161) translate(27.000000, 43.000000)">
                    <path d="M122.828065,1.97064516 C122.863774,2.16374194 122.883613,2.26029032 122.920645,2.45470968 C117.692484,5.50325806 115.014258,6.89329032 109.566548,9.40354839 C110.247677,10.4007742 108.776968,13.791871 108.462194,14.7282581 C107.893484,16.4171935 107.05629,18.1286129 106.607935,19.8162258 C106.252161,18.7039355 105.918871,17.7820968 105.831581,17.2940645 C105.705935,16.5719355 105.695355,15.826 105.731065,15.0496452 C105.731065,15.0350968 105.732387,15.021871 105.732387,15.0073226 C105.768097,14.283871 105.803806,13.5683548 105.933419,12.8158065 C106.029968,12.2484194 106.10271,11.4905806 106.462452,10.7922581 C104.542065,11.628129 103.573935,12.0275484 101.632387,12.7972903 C102.459,13.9743871 100.935387,17.8945161 100.616645,18.9724194 C100.055871,20.8742903 99.22,22.770871 98.7822258,24.6886129 C98.4026452,23.3382581 98.0481935,22.2153871 97.9529677,21.6334516 C97.8140968,20.7698065 97.7942581,19.8929355 97.8207097,18.9869677 C97.8207097,18.9710968 97.8220323,18.9552258 97.8220323,18.9393548 C97.8471613,18.0942258 97.8749355,17.261 97.9979355,16.3960323 C98.0944839,15.7069677 98.1592903,14.7692581 98.5732581,13.9690968 C97.1170968,14.5100323 96.3843871,14.7719032 94.9163226,15.2758065 C96.1053226,16.6605484 94.2312258,21.689 93.849,23.0565484 C93.1943226,25.3935484 92.2156129,27.7014516 91.7037742,30.0754839 C91.2554194,28.3455484 90.8388065,26.9026129 90.7277097,26.1632903 C90.5623871,25.0655484 90.5372581,23.9611935 90.5663548,22.8264194 C90.5676774,22.8065806 90.5676774,22.7854194 90.569,22.7655806 C90.5980968,21.7075161 90.6285161,20.6626774 90.7713548,19.5874194 C90.8930323,18.6735161 90.953871,17.3906129 91.5358065,16.3933871 C89.2622903,17.1168387 88.1195806,17.4567419 85.8235806,18.0915806 C87.1620323,19.7381935 85.2403226,25.4808387 84.854129,27.0414839 C84.2060645,29.668129 83.2247097,32.2246774 82.7181613,34.9095161 C82.2499677,32.8608387 81.8148387,31.1467742 81.697129,30.2804839 C81.5212258,28.9936129 81.4881613,27.716 81.5106452,26.4079677 C81.5106452,26.3841613 81.5119677,26.3603548 81.5119677,26.3365484 C81.5357742,25.1184516 81.5569355,23.9135806 81.6944839,22.6862258 C81.8148387,21.6043548 81.8783226,20.0635484 82.5250645,18.967129 C80.4869677,19.4829355 79.4646129,19.7236452 77.4119677,20.172 C79.2331613,22.0262581 76.5046774,28.766129 75.9505161,30.5899677 C75.0286774,33.6173548 73.6809677,36.5574516 72.9416452,39.6681613 C72.4007097,37.2676774 71.8901935,35.2547097 71.7645484,34.2402903 C71.5754194,32.7351935 71.5727742,31.2472903 71.642871,29.725 C71.6441935,29.6972258 71.6455161,29.6707742 71.6468387,29.643 C71.7129677,28.2265161 71.7804194,26.8272258 71.9946774,25.4080968 C72.1917419,24.1159355 72.3292903,22.2603548 73.2789032,21.0144839 C70.6668065,21.5104516 69.3548065,21.7313226 66.7241935,22.1161935 C67.5627097,24.1093226 67.2717419,28.1233548 67.1751935,29.2184516 C66.9265484,32.0276129 66.3816452,34.660871 65.6264516,37.3033871 C64.9863226,39.5451613 64.2509677,41.7089032 64.1160645,44.0816129 C62.9111935,38.760871 61.8160968,32.9031613 62.3213226,27.3298065 C62.4297742,26.1434516 62.6757742,24.0233548 63.3767419,22.5698387 C60.6892581,22.9044516 59.3402258,23.042 56.6381935,23.2615484 C56.7836774,23.4295161 56.9159355,23.6146774 57.0296774,23.8157097 C58.4977419,26.4079677 57.3127097,31.3001935 56.8630323,34.0498387 C56.2321613,37.9011935 55.2256774,41.7260968 53.8250645,45.4227097 C53.6650323,44.8275484 53.4930968,44.1781613 53.3185161,43.4838065 C52.5381935,40.3585484 52.2578065,37.1076452 52.2035806,33.866 C52.152,30.6904839 51.4232581,26.3894516 52.915129,23.5168065 C50.6363226,23.6464194 49.4962581,23.6900645 47.2134839,23.7376774 C47.6089355,24.2257097 47.9514839,24.9253548 48.175,25.8789355 C49.6549677,32.1863226 45.8909032,37.120871 44.3038065,42.7180323 C44.2813226,42.7920968 44.2614839,42.8674839 44.2403226,42.942871 C43.7112903,36.9595161 41.9535806,30.652129 43.9824194,25.0523226 C44.1834516,24.4955161 44.4268065,24.0960968 44.6820645,23.7680968 C42.6426452,23.7773548 41.6216129,23.7654516 39.580871,23.7072581 C40.4484839,25.4094194 39.6906452,30.1402903 39.196,31.4589032 C38.2265484,34.045871 36.833871,36.4027097 36.0376774,39.1404516 C35.4993871,35.4663226 34.4862903,26.1870968 37.2108065,23.8474516 C37.3166129,23.7561935 37.4039032,23.7085806 37.5017742,23.6345161 C35.4001935,23.5472258 34.3500645,23.4863871 32.251129,23.3276774 C32.0858065,25.363129 31.0317097,28.0863226 30.75,29.0187419 C30.0913548,31.1943871 29.1562903,33.2562903 28.6219677,35.4861613 C28.3032258,33.6702581 28.0016774,32.1479677 27.9342258,31.390129 C27.8350323,30.2672581 27.8561935,29.1681935 27.9276129,28.0492903 C27.9289355,28.028129 27.9302581,28.0082903 27.9315806,27.9884516 C27.9990323,26.9449355 28.0664839,25.9146452 28.2304839,24.8764194 C28.3164516,24.3368065 28.3905161,23.6543548 28.5571613,23.0062903 C27.0216452,22.8541935 26.2532258,22.7682258 24.7190323,22.5777742 C25.1237419,24.2296774 23.8699355,27.1856452 23.5829355,28.0717742 C23.0565484,29.6972258 22.3238387,31.1692581 21.8926774,32.8581935 C21.6744516,31.3213548 21.4628387,30.027871 21.4218387,29.4022903 C21.361,28.4725161 21.3914194,27.5903548 21.4575484,26.6989355 C21.458871,26.6830645 21.4601935,26.6671935 21.4615161,26.6513226 C21.5276452,25.8260323 21.5884839,25.0033871 21.7273548,24.1979355 C21.8239032,23.6239355 21.9111935,22.8343548 22.1823226,22.2418387 C20.5727419,22.0156774 19.7672903,21.8926774 18.1603548,21.622871 C18.219871,21.8900323 18.2344194,22.2299355 18.1762258,22.6465484 C17.7913548,25.3988387 15.9503226,26.5574194 14.7269355,28.3812581 C14.7097419,28.4063871 14.6925484,28.4301935 14.678,28.4553226 C15.3035806,26.0310323 15.5707419,23.272129 16.958129,21.5078065 C16.9845806,21.4760645 17.0070645,21.458871 17.0321935,21.4297742 C15.2427419,21.1176452 14.3486774,20.9483548 12.5671613,20.582 C8.40896774,23.3329677 3.38310025e-13,16.5679677 3.38310025e-13,16.5679677 C44.3315806,26.9343548 82.1666452,22.4640323 122.828065,1.97064516" id="Fill-11" fill="#90BF82"></path>
                    <path d="M122.826742,1.97064516 C122.791032,1.77754839 122.771194,1.681 122.735484,1.48658065 C117.507323,4.49280645 114.829097,5.863 109.38271,8.33093548 C109.651194,6.89990323 107.338,5.22154839 106.781194,4.67003226 C105.776032,3.67545161 104.54471,2.85280645 103.655935,1.7286129 C103.689,2.97580645 103.681065,4.04048387 103.755129,4.53248387 C103.864903,5.26254839 104.081806,5.92251613 104.347645,6.57190323 C104.352935,6.58380645 104.358226,6.59570968 104.362194,6.6076129 C104.609516,7.21070968 104.860806,7.80851613 105.202032,8.36135484 C105.459935,8.77796774 105.754871,9.37974194 106.279935,9.69583871 C104.360871,10.5158387 103.395387,10.9086452 101.453839,11.6625161 C101.832097,10.0132581 99.3390323,7.65245161 98.7478387,6.91577419 C97.7056452,5.61832258 96.4346452,4.49545161 95.5114839,3.06309677 C95.5630645,4.53116129 95.5696774,5.77703226 95.6516774,6.36425806 C95.7733548,7.23319355 96.0048065,8.036 96.2851935,8.83087097 L96.2997419,8.87451613 C96.5642581,9.61516129 96.826129,10.3452258 97.1832258,11.0369355 C97.4675806,11.5884516 97.7942581,12.3859677 98.3947097,12.8131613 C96.939871,13.3435161 96.2084839,13.5987742 94.7417419,14.0920968 C95.4255161,12.0711935 92.3372903,8.71316129 91.6217742,7.7013871 C90.3983871,5.97277419 88.9091613,4.4346129 87.8259677,2.54332258 C87.8894516,4.38832258 87.9013548,5.95425806 87.9979032,6.69754839 C88.1407419,7.80190323 88.411871,8.83087097 88.7425161,9.85851613 C88.749129,9.87703226 88.7544194,9.89554839 88.7610323,9.91274194 C89.0718387,10.8702903 89.3786774,11.8119677 89.7979355,12.7152903 C90.1550323,13.4823871 90.5610645,14.6237742 91.3625484,15.185871 C89.0903548,15.892129 87.9489677,16.2240968 85.6556129,16.8430645 C86.4676774,14.6092258 83.2114839,10.2671935 82.4642258,8.99883871 C81.2077742,6.86551613 79.6841613,4.92793548 78.5705484,2.62664516 C78.6499032,4.76658065 78.6723871,6.57719355 78.7755484,7.44877419 C78.9316129,8.74093548 79.212,9.95903226 79.5571935,11.1810968 C79.5624839,11.2035806 79.5690968,11.2260645 79.5757097,11.2472258 C79.8984194,12.382 80.2158387,13.5075161 80.6496452,14.5973226 C81.0305484,15.5575161 81.4749355,16.9792903 82.3584194,17.6934839 C80.3216452,18.1960645 79.3006129,18.4288387 77.2492903,18.8626452 C78.5242581,16.3444516 74.3475484,11.0647097 73.4085161,9.53448387 C71.8491935,6.99380645 69.9380645,4.64754839 68.5705161,1.89525806 C68.6062258,4.38170968 68.5784516,6.4846129 68.6855806,7.503 C68.8469355,9.01206452 69.1749355,10.4457419 69.5809677,11.8873548 C69.5875806,11.9138065 69.5955161,11.9389355 69.6034516,11.9640645 C69.9856774,13.3038387 70.3626129,14.6290645 70.8876774,15.9185806 C71.3690968,17.0930323 71.9245806,18.8322258 73.1201935,19.6773548 C70.5094194,20.156129 69.1987419,20.3664194 66.5720968,20.7340968 C66.9477097,18.5663871 65.7957419,14.76 65.4677419,13.7257419 C64.6265806,11.07 63.5526452,8.6576129 62.294871,6.26903226 C61.228871,4.24151613 60.1033548,2.2893871 59.5002581,3.75900028e-14 C59.4579355,5.4596129 59.5822581,11.4257742 61.2156452,16.7610645 C61.5634839,17.8971613 62.238,19.9154194 63.2272903,21.1652581 C60.541129,21.4800323 59.1947419,21.6109677 56.4966774,21.8106774 C56.6064516,21.622871 56.7003548,21.4191935 56.7730968,21.2036129 C57.7041935,18.4209032 55.5867419,13.7931935 54.6305161,11.1440645 C53.2907419,7.43554839 51.6163548,3.78787097 49.635129,0.247322581 C49.5901613,0.853064516 49.5465161,1.51303226 49.5055161,2.21664516 C49.3296129,5.38290323 49.6390968,8.63248387 50.1747419,11.8529677 C50.6998065,15.0073226 50.7646129,19.3572903 52.7749355,22.042129 C50.5000968,22.1571935 49.3613548,22.1929032 47.0812258,22.2246452 C47.3893871,21.7247097 47.6062903,21.0118387 47.6605161,20.0529677 C48.0162903,13.7059032 43.4785161,8.91287097 41.0542258,3.27074194 C41.0211613,3.19535484 40.9894194,3.11996774 40.959,3.04458065 C41.4139677,9.0266129 40.6839032,15.334 43.6385484,20.9536452 C43.9334839,21.5117742 44.2416452,21.9125161 44.5524516,22.2391935 C42.5143548,22.2352258 41.4959677,22.2167097 39.4565484,22.1452903 C40.0596452,20.4894194 38.5545484,15.6897742 37.8641613,14.324871 C36.5085161,11.6492903 34.7918065,9.13506452 33.62,6.27564516 C33.6292581,9.91670968 33.9625484,19.2065161 37.0547419,21.8186129 C37.1750968,21.9204516 37.2716452,21.976 37.3814194,22.0593226 C35.2838065,21.9588065 34.2336774,21.8913548 32.1373871,21.7194194 C31.6810968,19.6363548 30.2460968,16.7015484 29.8360968,15.7069677 C28.8825161,13.3845161 27.6802903,11.1096774 26.8602903,8.73432258 C26.7862258,10.5079032 26.6843871,11.9865484 26.716129,12.7404194 C26.7637419,13.858 26.9290645,14.9769032 27.1459677,16.1275484 L27.157871,16.1897097 C27.3641935,17.2583548 27.5652258,18.3217097 27.8680968,19.4101935 C28.0268065,19.9749355 28.192129,20.6825161 28.4487097,21.3742258 C26.9131935,21.2115484 26.1474194,21.1216129 24.615871,20.9219032 C24.8182258,19.3480323 23.1848387,16.0164516 22.7893871,15.0364194 C22.0646129,13.2403548 21.1573226,11.5315806 20.5317419,9.68525806 C20.4947097,11.1810968 20.4351935,12.4349032 20.4669355,13.0591613 C20.515871,13.9862903 20.648129,14.8935806 20.8200645,15.8207097 C20.8227097,15.8365806 20.8266774,15.8537742 20.8293226,15.8709677 C20.9933226,16.7306452 21.1507097,17.5863548 21.3874516,18.4473548 C21.5540968,19.0597097 21.7352903,19.8889677 22.0818065,20.5700968 C20.4735484,20.3333548 19.6707419,20.2050645 18.0664516,19.926 C18.096871,19.6747097 18.0743871,19.3321613 17.9685806,18.8890968 C17.2689355,15.9503226 15.2877097,14.1119355 13.873871,11.7696452 C13.8540323,11.7379032 13.8368387,11.7074839 13.817,11.6757419 C14.6925484,14.3949677 15.252,17.3205161 16.8562903,19.6204839 C16.8840645,19.6614839 16.9118387,19.6879355 16.9396129,19.7262903 C15.154129,19.4022581 14.2613871,19.2263548 12.479871,18.8507419 C7.97119355,14.2970968 3.94695029e-13,16.5679677 3.94695029e-13,16.5679677 C44.3315806,26.9343548 82.1666452,22.4640323 122.826742,1.97064516" id="Fill-15" fill="#2BAC70"></path>
                </g>
            </g>
        </g>
    </g>
</svg>