<?xml version="1.0" encoding="UTF-8"?>
<svg width="115px" height="128px" viewBox="0 0 115 128" version="1.1" xmlns="http://www.w3.org/2000/svg" xmlns:xlink="http://www.w3.org/1999/xlink">
    <title>67EC5B74-4902-4E0E-A307-DD5E71F21943</title>
    <defs>
        <filter x="-40.6%" y="-62.1%" width="181.2%" height="224.3%" filterUnits="objectBoundingBox" id="filter-1">
            <feOffset dx="0" dy="10" in="SourceAlpha" result="shadowOffsetOuter1"></feOffset>
            <feGaussianBlur stdDeviation="5" in="shadowOffsetOuter1" result="shadowBlurOuter1"></feGaussianBlur>
            <feColorMatrix values="0 0 0 0 0   0 0 0 0 0   0 0 0 0 0  0 0 0 0.3 0" type="matrix" in="shadowBlurOuter1" result="shadowMatrixOuter1"></feColorMatrix>
            <feMerge>
                <feMergeNode in="shadowMatrixOuter1"></feMergeNode>
                <feMergeNode in="SourceGraphic"></feMergeNode>
            </feMerge>
        </filter>
        <polygon id="path-2" points="0 0.00082195906 92.6473846 0.00082195906 92.6473846 60.4656 0 60.4656"></polygon>
        <filter x="-33.6%" y="-56.9%" width="168.1%" height="214.5%" filterUnits="objectBoundingBox" id="filter-4">
            <feOffset dx="0" dy="10" in="SourceAlpha" result="shadowOffsetOuter1"></feOffset>
            <feGaussianBlur stdDeviation="5" in="shadowOffsetOuter1" result="shadowBlurOuter1"></feGaussianBlur>
            <feColorMatrix values="0 0 0 0 0   0 0 0 0 0   0 0 0 0 0  0 0 0 0.3 0" type="matrix" in="shadowBlurOuter1" result="shadowMatrixOuter1"></feColorMatrix>
            <feMerge>
                <feMergeNode in="shadowMatrixOuter1"></feMergeNode>
                <feMergeNode in="SourceGraphic"></feMergeNode>
            </feMerge>
        </filter>
    </defs>
    <g id="Visueel-ontwerp" stroke="none" stroke-width="1" fill="none" fill-rule="evenodd">
        <g id="Home-04" transform="translate(-260.000000, -9.000000)">
            <g id="Rectangle" transform="translate(-73.000000, -15.000000)">
                <g id="Group-21" transform="translate(311.464027, 6.461283)">
                    <g id="Group-3-Copy" filter="url(#filter-1)" transform="translate(53.000000, 73.384615) rotate(-123.000000) translate(-53.000000, -73.384615) translate(5.000000, 42.000000)">
                        <mask id="mask-3" fill="white">
                            <use xlink:href="#path-2"></use>
                        </mask>
                        <g id="Clip-2"></g>
                        <path d="M58.2864,46.3499077 C57.5774769,46.9074462 56.7799385,47.4280615 56.0525538,47.9782154 C53.9220923,49.5880615 51.4777846,50.6514462 48.9411692,51.5191385 C46.2310154,52.4496 43.3473231,53.1622154 40.5374769,53.8120615 C38.5067077,54.2846769 35.9996308,54.2477538 34.1165538,55.0932923 C38.8833231,52.4680615 42.9448615,48.6243692 48.2211692,46.8668308 C51.0531692,45.9216 53.6820923,45.1277538 56.5953231,44.5997538 C58.0833231,44.3339077 59.2870154,43.6139077 60.7233231,43.2852923 C59.9479385,42.8976 59.1799385,42.5025231 58.4045538,42.1111385 C56.2925538,43.2040615 53.7559385,43.5326769 51.5294769,44.2268308 C49.3620923,44.8988308 47.2759385,45.3862154 45.0125538,45.6852923 C42.2728615,46.0471385 39.5996308,46.3979077 36.8304,46.2354462 C34.6925538,46.1062154 32.2482462,45.1129846 30.1473231,45.3936 C31.7830154,44.9985231 33.3337846,44.3486769 34.9805538,43.9092923 C39.5220923,42.7019077 44.1374769,42.9566769 48.7934769,42.4656 C51.0310154,42.2292923 53.4384,42.1812923 55.6611692,41.7419077 C56.1670154,41.6422154 56.6728615,41.5609846 57.1787077,41.4797538 C54.6199385,40.1689846 52.0759385,38.8286769 49.5504,37.4588308 C49.0187077,37.5622154 48.5165538,37.6840615 48.1510154,37.7542154 C46.6556308,38.0532923 45.2747077,38.8434462 43.8199385,39.2791385 C41.4679385,39.9843692 38.9497846,40.6009846 36.5128615,40.9185231 C32.6137846,41.4280615 28.7664,42.2736 24.8931692,42.8126769 C22.1017846,43.2003692 18.8045538,43.4071385 16.1793231,44.4336 C18.5756308,43.4329846 21.0199385,42.1185231 23.3977846,41.0514462 C26.7467077,39.5486769 30.1288615,39.0391385 33.6513231,38.2194462 C37.1479385,37.4071385 40.8476308,37.0822154 44.4402462,36.7831385 C45.8507077,36.6649846 47.1467077,36.7166769 48.4353231,36.8569846 C46.5780923,35.8379077 44.7282462,34.8003692 42.8857846,33.7480615 C39.4371692,34.5123692 35.5011692,36.0225231 31.4322462,37.2852923 C26.5805538,38.7917538 21.6882462,38.9394462 16.6925538,38.4225231 C18.4722462,38.0200615 20.3368615,37.0268308 22.0833231,36.3806769 C24.4611692,35.5019077 26.8057846,34.9296 29.3128615,34.5049846 C32.4107077,33.9769846 35.4716308,33.6483692 38.6027077,33.3972923 C39.3448615,33.3419077 40.5928615,33.1425231 41.7522462,33.1092923 C41.6340923,33.0428308 41.5159385,32.9800615 41.4014769,32.9136 C39.8728615,32.0311385 38.3331692,31.1376 36.7934769,30.2366769 C35.9700923,30.5616 35.0802462,30.8274462 34.3122462,31.2151385 C32.3368615,32.2046769 30.4537846,32.7954462 28.3417846,33.3419077 C25.3584,34.1172923 22.6002462,34.7154462 19.4913231,34.9369846 C17.5713231,35.0736 15.6180923,34.7782154 13.7350154,34.8852923 C15.1417846,34.6859077 16.8291692,33.2680615 18.1473231,32.6662154 C20.0894769,31.7800615 22.5559385,30.7868308 24.6605538,30.4840615 C27.3190154,30.1000615 29.9774769,29.6163692 32.6580923,29.3320615 C33.3522462,29.2582154 34.1313231,29.1622154 34.9177846,29.1326769 C33.4482462,28.2649846 31.9824,27.3825231 30.5239385,26.4852923 C29.5233231,26.9246769 28.3454769,27.7037538 27.6697846,27.9548308 C26.0968615,28.5308308 24.3651692,28.8779077 22.7257846,29.2360615 C18.6790154,30.1148308 14.1965538,31.2372923 10.0390154,30.4656 C11.0174769,29.6865231 12.5682462,29.1696 13.7534769,28.8077538 C15.9430154,28.1320615 18.2433231,26.9689846 20.4771692,26.5812923 C22.5448615,26.2231385 24.9559385,25.6877538 27.0347077,25.6729846 C27.7584,25.6656 28.5374769,25.6619077 29.2907077,25.7172923 C27.3744,24.5209846 25.4765538,23.2877538 23.6082462,22.0139077 C19.2697846,25.5622154 13.0925538,27.0169846 7.63163077,26.6403692 C8.29255385,26.4003692 8.87963077,25.8539077 9.55532308,25.5474462 C11.0285538,24.8791385 12.6088615,24.3696 14.1448615,23.8083692 C16.9030154,22.7966769 19.9787077,21.4896 22.9842462,21.5819077 C21.5959385,20.6256 20.2224,19.6471385 18.8820923,18.6391385 C17.7596308,19.9609846 16.4008615,20.8877538 14.7910154,21.7628308 C13.1700923,22.6452923 11.3645538,23.2508308 9.52578462,23.4465231 C7.88270769,23.6237538 6.19163077,23.3025231 4.56701538,23.6052923 C5.81870769,21.5560615 8.93132308,20.7068308 10.9251692,19.5696 C12.6273231,18.5985231 15.2156308,17.5092923 17.4864,17.5609846 C16.1128615,16.4902154 14.7688615,15.3899077 13.4617846,14.2489846 C12.1436308,15.1129846 10.1940923,15.5486769 8.77993846,15.4120615 C7.27716923,15.2680615 5.23163077,14.9837538 4.05378462,13.9646769 C5.62670769,13.5326769 7.63901538,12.7794462 9.28947692,13.1265231 C10.5264,13.3886769 11.6784,13.6988308 12.9227077,13.7652923 C11.6193231,12.6096 10.3491692,11.4243692 9.13070769,10.1874462 C7.97501538,10.5382154 6.48332308,10.3868308 5.40886154,10.2539077 C3.49993846,10.0176 1.80516923,9.07606154 -0.000369230769,8.49267692 C1.5024,8.97636923 3.45932308,8.17513846 5.06178462,8.34129231 C5.82978462,8.41883077 6.64209231,8.51483077 7.39532308,8.69206154 C7.57255385,8.73267692 7.74609231,8.81390769 7.92332308,8.90621538 C5.38301538,6.19236923 3.05316923,3.28283077 1.0224,0.103753846 C0.978092308,0.0372923077 1.08886154,-0.0402461538 1.13686154,0.0262153846 C3.41870769,3.08344615 6.00332308,5.89698462 8.77993846,8.53698462 C8.77255385,8.52590769 8.75409231,8.50744615 8.74670769,8.49636923 C8.39593846,7.91667692 8.3184,7.63236923 8.23716923,6.97883077 C8.0784,5.76406154 8.24824615,4.36467692 7.66486154,3.24590769 C8.7984,5.45021538 9.97255385,7.26313846 10.0611692,9.74806154 C11.0987077,10.6932923 12.1694769,11.6052923 13.2550154,12.5025231 C12.8710154,11.3099077 12.7676308,9.80344615 12.5645538,8.84344615 C12.3614769,7.86129231 12.5682462,4.67483077 12.2765538,3.94744615 C14.2297846,6.39175385 14.4624,10.1542154 14.1153231,13.2040615 C15.4851692,14.3154462 16.8882462,15.3936 18.3208615,16.4385231 C17.3719385,13.0231385 17.6968615,8.99483077 18.6457846,5.63113846 C19.8642462,8.57390769 20.7430154,13.8686769 19.4322462,17.2397538 C21.1750154,18.4840615 22.9510154,19.6877538 24.7491692,20.8582154 C24.3836308,20.0680615 24.0328615,19.2742154 23.7854769,18.4766769 C23.3239385,16.9776 23.3534769,15.2754462 23.1319385,13.7357538 C22.7627077,11.2249846 22.8144,8.19729231 23.1467077,5.68652308 C24.4168615,8.7696 25.0445538,12.0409846 25.3547077,15.3456 C25.4876308,16.7449846 25.7128615,18.1369846 25.8199385,19.5437538 C25.8716308,20.2157538 25.8088615,20.8656 25.7571692,21.5154462 C27.4445538,22.5936 29.1467077,23.6459077 30.8562462,24.6723692 C30.4279385,23.5351385 30.2617846,22.0877538 30.0365538,21.0723692 C29.6857846,19.4957538 29.5602462,17.9560615 29.5713231,16.3388308 C29.5934769,13.4625231 29.4384,10.6305231 30.0217846,7.82436923 C31.0408615,11.1289846 31.9934769,15.0169846 31.9971692,18.4766769 C32.0008615,20.0348308 32.0673231,21.4674462 31.8568615,22.9997538 C31.7867077,23.4945231 31.5540923,24.3216 31.4654769,25.0416 C33.5220923,26.2748308 35.5860923,27.4748308 37.6353231,28.6526769 C36.3393231,24.9492923 35.1762462,21.5412923 35.0137846,17.4797538 C34.9288615,15.3529846 34.8513231,13.3443692 35.0064,11.2176 C35.1134769,9.78129231 35.6045538,7.98683077 35.1577846,6.42498462 C35.7522462,6.92344615 35.9331692,7.96467692 36.2027077,8.69944615 C36.7491692,10.1726769 37.5614769,11.6016 38.0414769,13.0932923 C38.6839385,15.0871385 39.0531692,17.3985231 39.2894769,19.4772923 C39.5331692,21.6114462 39.3633231,23.7086769 39.0531692,25.8169846 C38.9017846,26.8692923 38.5362462,27.9732923 38.3479385,29.0588308 C39.8544,29.9228308 41.3571692,30.7794462 42.8414769,31.6286769 C43.7682462,32.1566769 44.7060923,32.6662154 45.6402462,33.1905231 C44.8648615,31.8502154 44.0894769,30.2219077 43.7054769,29.4502154 C42.4537846,26.9468308 41.8445538,23.9228308 41.3608615,21.1794462 C40.8845538,18.4766769 40.4673231,14.9652923 40.8254769,12.2292923 C41.0987077,10.1505231 41.2833231,6.59113846 42.5313231,4.87052308 C43.1331692,6.76836923 43.2144,8.83975385 43.7904,10.7856 C44.4660923,13.0785231 44.6174769,15.5412923 45.0974769,17.8748308 C45.7399385,20.9985231 46.6334769,24.1148308 46.8660923,27.2865231 C47.0248615,29.4022154 46.6962462,31.7136 46.7737846,33.8219077 C48.0624,34.5382154 49.3547077,35.2508308 50.6507077,35.9486769 C50.0636308,34.3942154 49.9196308,32.5776 49.7534769,31.0674462 C49.4580923,28.3942154 49.4211692,25.6803692 49.6907077,23.0071385 C49.9971692,19.9499077 50.1448615,17.0772923 51.1454769,14.1271385 C51.8064,12.1812923 52.5596308,9.19421538 53.7448615,7.54744615 C54.0144,11.5794462 54.0107077,15.8772923 53.6451692,19.9240615 C53.3940923,22.6896 53.3091692,25.4662154 53.0950154,28.2317538 C52.9620923,29.9191385 52.9842462,31.6212923 52.7331692,33.2976 C52.5596308,34.4496 52.2088615,35.5425231 52.0168615,36.6797538 C54.0033231,37.7431385 56.0008615,38.7917538 58.0094769,39.8182154 C56.9867077,36.9160615 56.8722462,33.6336 56.8759385,30.6169846 C56.8870154,24.8089846 59.9368615,19.0748308 60.8894769,13.5326769 C60.5571692,14.7954462 60.9079385,16.2243692 60.8340923,17.5277538 C60.7344,19.2742154 60.7417846,21.0391385 60.7011692,22.7929846 C60.6420923,25.3776 60.9817846,27.9474462 60.8784,30.5246769 C60.7787077,32.9800615 60.5313231,35.5019077 59.8888615,37.8871385 C59.6673231,38.7105231 59.3830154,39.5634462 59.1836308,40.4163692 C60.3873231,41.0292923 61.5910154,41.6348308 62.8020923,42.2329846 C62.4993231,40.9812923 62.1707077,39.8034462 62.1559385,38.4299077 C62.1374769,36.3659077 62.2445538,34.2612923 62.4180923,32.2046769 C62.8205538,27.4969846 63.8285538,22.1320615 65.7042462,17.7862154 C66.2137846,21.6705231 66.3577846,25.9166769 66.1916308,29.8563692 C66.0808615,32.5443692 65.7153231,35.3320615 65.2205538,37.9757538 C64.9325538,39.5228308 64.6260923,41.2803692 63.9725538,42.8016 C65.2722462,43.4366769 66.5682462,44.0828308 67.8790154,44.7031385 C68.0488615,44.7843692 68.2224,44.8619077 68.3959385,44.9431385 C68.4660923,43.7874462 68.3257846,42.6206769 68.3516308,41.5462154 C68.3922462,39.5745231 68.6839385,37.6692923 68.9054769,35.7123692 C69.3965538,31.3554462 70.2088615,26.2489846 72.5571692,22.4680615 C72.4094769,23.6496 72.7196308,24.8569846 72.8377846,26.0348308 C73.0740923,28.3831385 73.1848615,30.4582154 72.9079385,32.8212923 C72.3873231,37.3111385 71.1725538,41.3357538 68.8685538,45.1609846 C69.7916308,45.5929846 70.7184,46.0212923 71.6451692,46.4459077 C71.8704,45.1351385 72.4648615,43.4846769 72.8267077,42.6391385 C73.9713231,39.9363692 75.9245538,37.7246769 77.4937846,35.2619077 C76.4156308,39.6742154 75.6882462,43.6065231 72.7860923,46.9739077 C75.3190154,48.1296 77.8593231,49.2705231 80.4144,50.3671385 C84.2544,52.0176 88.8513231,53.2176 92.3479385,55.4994462 C92.9091692,55.8686769 92.6396308,56.9542154 91.9048615,56.8286769 C87.5147077,56.0865231 83.0064,53.5388308 78.9264,51.7702154 C76.4193231,50.6846769 73.9307077,49.5659077 71.4494769,48.4249846 C69.6660923,50.6920615 68.3184,53.0699077 66.3060923,55.1745231 C63.5516308,58.0471385 59.6820923,58.4311385 56.4550154,60.4656 C58.8439385,57.8625231 60.8193231,54.9345231 63.3522462,52.4606769 C65.0248615,50.8249846 68.0008615,48.6576 70.5854769,48.0188308 C69.4334769,47.4871385 68.2851692,46.9554462 67.1405538,46.4126769 C66.0550154,47.5314462 64.5559385,48.6982154 63.4445538,49.4846769 C61.5540923,50.8212923 60.0845538,52.6563692 58.0464,53.7123692 C55.1737846,55.1966769 52.5707077,56.8656 49.5208615,58.0766769 C47.4051692,58.9222154 44.9460923,58.9591385 42.9005538,59.8489846 C46.1904,56.5332923 50.1817846,54.0852923 54.2248615,51.6631385 C56.4254769,50.3486769 58.5448615,49.3037538 60.8525538,48.2366769 C62.2260923,47.6016 64.1940923,46.3942154 65.9885538,45.8625231 C64.5227077,45.1609846 63.0679385,44.4409846 61.6131692,43.7209846 C60.6384,44.7585231 59.4125538,45.4674462 58.2864,46.3499077" id="Fill-1" fill="#005249" mask="url(#mask-3)"></path>
                    </g>
                    <g id="Group-17" filter="url(#filter-4)" transform="translate(99.000000, 65.272727) rotate(-105.000000) translate(-99.000000, -65.272727) translate(41.000000, 31.000000)">
                        <g id="Group-18" transform="translate(0.237811, 0.283003)">
                            <path d="M91.0231458,33.4451835 C91.6097367,30.6077971 91.2268049,25.7450244 90.3100095,21.6639335 C96.6972595,17.3277744 105.415714,11.0664108 115.095782,1.9439335 C115.255282,1.78245622 115.103691,1.26638804 114.845328,0.793160769 L114.834123,0.778001678 C114.5751,0.304115315 114.209305,-0.12693014 114.050464,0.0345471329 C106.1941,7.39395622 98.2586458,13.8029562 89.8328276,19.739388 C89.4742822,18.506229 89.074214,17.4345471 88.6385549,16.5658653 C83.2504867,5.98877441 70.1899413,2.73747895 64.8025322,5.42063804 C68.1348958,10.162138 70.1207367,14.9655926 67.7209867,20.9237744 C66.7422367,17.4167517 64.1724413,8.91777441 60.2429413,7.71822895 C60.2429413,7.71822895 53.7429867,10.2142062 50.8363958,12.5823199 C54.3915322,16.6858199 57.1300549,24.8176835 54.0507822,29.8920244 C51.8586458,25.8115926 50.2082822,18.8337971 45.5030322,16.462388 C45.5030322,16.462388 40.9836458,19.9410699 37.896464,20.8756608 C39.4822367,25.2025926 42.7381458,29.8102971 41.4258958,35.1080699 C41.1253504,32.7333653 40.1156231,30.3711835 39.0366913,28.2917517 C38.6853958,27.5997062 35.670714,21.9407517 34.9081458,22.3210471 C33.517464,23.0420926 31.9475095,23.2707971 30.8685776,24.5685471 C33.8180095,27.9503426 35.6911458,33.5697517 33.8779867,38.0060926 C32.3291231,32.6041835 30.1000776,28.7550926 26.608214,24.5481153 C22.6325776,27.0388199 17.2286913,28.0729335 13.7625322,31.2194335 C15.8610776,33.890729 17.8311004,37.3911608 18.3320095,40.786138 C16.1108731,40.3564108 14.3286913,38.8299562 12.3217595,37.8446153 C12.0535095,37.7022517 6.92644127,35.4198199 7.20391854,35.2313199 C4.33291854,37.3957744 -0.796786001,52.1521608 0.104850363,55.6506153 C1.47575945,60.9068653 18.9858276,67.8411608 19.1288504,67.4707517 C20.7311004,63.4390926 20.0983731,59.8345244 19.2053049,54.4405244 C22.2272367,58.1070471 23.7543504,61.665479 24.6882822,66.3028426 C27.9666004,67.6882517 31.2323958,65.9297971 34.1363504,65.8724562 C34.8541004,61.680638 34.9048504,57.4650926 33.8845776,53.1493653 C36.4715095,56.5430244 38.6873731,62.093229 37.7705776,66.5803199 C42.0658731,64.833729 54.3809867,61.6700926 54.3809867,61.6700926 C57.0496458,59.2321153 55.310964,52.3545017 54.1733731,49.2574335 C55.9911458,51.175388 57.9565549,53.6370926 58.1193504,56.4520699 C60.3358731,54.8742062 69.6646458,51.3427971 69.6646458,51.3427971 C70.7712595,48.3320699 66.004714,43.8779335 64.4558504,41.8532062 C67.8442367,43.2926608 71.3558731,46.8372517 73.4834185,49.9547517 C74.8576231,49.0241153 76.4750322,48.2332062 77.8433049,47.4818426 C76.2733504,44.9291835 75.2431913,42.0384108 73.4016913,39.618888 C75.9629185,40.4763653 78.1754867,44.490229 79.0988731,47.1740471 C84.0750095,42.3106153 89.443964,40.8843426 91.0231458,33.4451835" id="Fill-4" fill="#2BAC70"></path>
                            <path d="M91.0231458,33.4451835 C91.6097367,30.6077971 91.2268049,25.7450244 90.3100095,21.6639335 C96.6972595,17.3277744 105.415714,11.0664108 115.095782,1.9439335 C115.255282,1.78245622 115.103691,1.26638804 114.845328,0.793160769 L114.834123,0.778001678 C98.4761458,17.317229 74.247964,30.0027517 63.7888504,35.1990244 C42.1508958,45.9356153 0.104850363,55.6506153 0.104850363,55.6506153 C1.47575945,60.9068653 18.9858276,67.8411608 19.1288504,67.4707517 C20.7311004,63.4390926 20.0983731,59.8345244 19.2053049,54.4405244 C22.2272367,58.1070471 23.7543504,61.665479 24.6882822,66.3028426 C27.9666004,67.6882517 31.2323958,65.9297971 34.1363504,65.8724562 C34.8541004,61.680638 34.9048504,57.4650926 33.8845776,53.1493653 C36.4715095,56.5430244 38.6873731,62.093229 37.7705776,66.5803199 C42.0658731,64.833729 54.3809867,61.6700926 54.3809867,61.6700926 C57.0496458,59.2321153 55.310964,52.3545017 54.1733731,49.2574335 C55.9911458,51.175388 57.9565549,53.6370926 58.1193504,56.4520699 C60.3358731,54.8742062 69.6646458,51.3427971 69.6646458,51.3427971 C70.7712595,48.3320699 66.004714,43.8779335 64.4558504,41.8532062 C67.8442367,43.2926608 71.3558731,46.8372517 73.4834185,49.9547517 C74.8576231,49.0241153 76.4750322,48.2332062 77.8433049,47.4818426 C76.2733504,44.9291835 75.2431913,42.0384108 73.4016913,39.618888 C75.9629185,40.4763653 78.1754867,44.490229 79.0988731,47.1740471 C84.0750095,42.3106153 89.443964,40.8843426 91.0231458,33.4451835" id="Fill-6" fill="#90BF82"></path>
                        </g>
                    </g>
                </g>
            </g>
        </g>
    </g>
</svg>