<?xml version="1.0" encoding="UTF-8"?>
<svg width="32px" height="31px" viewBox="0 0 32 31" version="1.1" xmlns="http://www.w3.org/2000/svg" xmlns:xlink="http://www.w3.org/1999/xlink">
    <title>AE4199A1-0B67-4280-A84A-1ABB91772AB8</title>
    <defs>
        <filter x="-59.1%" y="-61.9%" width="218.2%" height="228.6%" filterUnits="objectBoundingBox" id="filter-1">
            <feOffset dx="0" dy="2" in="SourceAlpha" result="shadowOffsetOuter1"></feOffset>
            <feGaussianBlur stdDeviation="2" in="shadowOffsetOuter1" result="shadowBlurOuter1"></feGaussianBlur>
            <feColorMatrix values="0 0 0 0 0   0 0 0 0 0   0 0 0 0 0  0 0 0 0.5 0" type="matrix" in="shadowBlurOuter1" result="shadowMatrixOuter1"></feColorMatrix>
            <feMerge>
                <feMergeNode in="shadowMatrixOuter1"></feMergeNode>
                <feMergeNode in="SourceGraphic"></feMergeNode>
            </feMerge>
        </filter>
    </defs>
    <g id="Visueel-ontwerp" stroke="none" stroke-width="1" fill="none" fill-rule="evenodd">
        <g id="Home-04" transform="translate(-21.000000, -21.000000)" fill="#FFFFFF" fill-rule="nonzero">
            <g id="heart" filter="url(#filter-1)" transform="translate(26.000000, 24.000000)">
                <path d="M15.7292778,-0.994730506 C13.9314118,-0.924639704 12.2769294,-0.158714332 11.030313,1.10010756 L11,1.132 L10.969687,1.10010756 C9.66073982,-0.221655427 7.90212032,-1 6,-1 C2.14771525,-1 -1,2.14771525 -1,6 C-1,7.62277 -0.338995572,9.42550935 0.865468166,11.39645 C1.84867863,13.0053399 3.17579148,14.6943926 4.76284586,16.4257246 C5.98829807,17.7625816 7.29848808,19.04895 8.60857721,20.2399401 L9.14268129,20.7200188 L9.64158304,21.1581635 L10.3146951,21.7310903 L11,22.2920609 L12.0131017,21.4551278 L12.6032114,20.9444712 L13.1202266,20.4850829 C13.2092724,20.4050545 13.2996996,20.3233248 13.3914228,20.2399401 C14.7015119,19.04895 16.0117019,17.7625816 17.2371541,16.4257246 C18.8242085,14.6943926 20.1513214,13.0053399 21.1345318,11.39645 C22.3389956,9.42550935 23,7.62277 23,6 C23,2.14771525 19.8522847,-1 16,-1 L15.7292778,-0.994730506 Z M16,1 C18.7477153,1 21,3.25228475 21,6 C21,7.18973 20.4578794,8.66824065 19.4279682,10.35355 C18.5205536,11.8384101 17.2695415,13.4306074 15.7628459,15.0742754 C14.5820481,16.3624184 13.3141131,17.6073 12.0460772,18.7600599 L11.5296813,19.2242312 L10.999,19.689 L10.4703187,19.2242312 L9.95392279,18.7600599 C8.68588692,17.6073 7.41795193,16.3624184 6.23715414,15.0742754 C4.73045852,13.4306074 3.47944637,11.8384101 2.57203183,10.35355 C1.54212057,8.66824065 1,7.18973 1,6 C1,3.25228475 3.25228475,1 6,1 C7.67657283,1 9.20488266,1.85405549 10.1759581,3.26652882 L11,4.46513526 L11.8240419,3.26652882 C12.7951173,1.85405549 14.3234272,1 16,1 Z" id="Path"></path>
            </g>
        </g>
    </g>
</svg>