<?xml version="1.0" encoding="UTF-8"?>
<svg width="106px" height="135px" viewBox="0 0 106 135" version="1.1" xmlns="http://www.w3.org/2000/svg" xmlns:xlink="http://www.w3.org/1999/xlink">
    <title>750BE56A-C870-4778-9272-48CBCD016897</title>
    <defs>
        <filter x="-47.6%" y="-32.4%" width="195.2%" height="164.8%" filterUnits="objectBoundingBox" id="filter-1">
            <feOffset dx="0" dy="2" in="SourceAlpha" result="shadowOffsetOuter1"></feOffset>
            <feGaussianBlur stdDeviation="6.5" in="shadowOffsetOuter1" result="shadowBlurOuter1"></feGaussianBlur>
            <feColorMatrix values="0 0 0 0 0   0 0 0 0 0   0 0 0 0 0  0 0 0 0.5 0" type="matrix" in="shadowBlurOuter1" result="shadowMatrixOuter1"></feColorMatrix>
            <feMerge>
                <feMergeNode in="shadowMatrixOuter1"></feMergeNode>
                <feMergeNode in="SourceGraphic"></feMergeNode>
            </feMerge>
        </filter>
    </defs>
    <g id="Visueel-ontwerp" stroke="none" stroke-width="1" fill="none" fill-rule="evenodd">
        <g id="Home-04" transform="translate(-131.000000, 11.000000)">
            <g id="Group-3" transform="translate(136.000000, 11.000000)">
                <g id="Logo" filter="url(#filter-1)" transform="translate(17.000000, 0.000000)">
                    <path d="M59.2585336,56.0738664 L46.0088364,42.8241691 L55.8938995,32.9367856 L49.173913,26.2167991 L54.5666093,20.8264231 L44.6745849,10.9320783 L39.2818886,16.3247747 L23.064352,0.107238099 L14.3835959,8.7879942 L15.7271291,39.1207511 L0.711579058,54.1386216 L17.32359,70.752953 C17.562595,71.0963777 17.8364066,71.4328411 18.156627,71.750741 C18.8759626,72.4700766 19.6765135,73.0037772 20.5095505,73.3286384 L20.2032527,73.6326157 L36.8291863,90.2585493 L51.2414226,75.846313 C51.4015328,75.8834399 53.9865,76.3776931 53.9865,76.3776931 L56.4020753,69.4790329 C57.467156,69.103122 58.4626236,68.4603609 59.3536716,67.5739538 C60.8990828,66.0262221 61.7785286,64.067773 61.8272578,62.0582743 C61.8806278,59.8770632 60.9942208,57.8095535 59.2585336,56.0738664" id="Fill-2" fill="#FEFEFE"></path>
                    <path d="M36.9779263,76.562864 L38.2193603,77.804298 L37.5000247,82.0553392 L39.9852131,79.5701508 L41.5747127,81.1619708 L36.2725134,86.4618497 L35.0380407,85.2296975 L35.7968237,80.9252862 L33.2652266,83.4568833 L31.675727,81.8650633 L36.9779263,76.562864 Z M32.3577035,71.9438014 L36.21195,75.7980479 L34.8498532,77.162465 L32.5851064,74.8977182 L31.8959365,75.5868881 L33.8729491,77.5639007 L32.6616808,78.775169 L30.6846682,76.7981563 L30.0094209,77.4734036 L32.2741678,79.7381505 L30.9120711,81.1002472 L27.0555042,77.2460008 L32.3577035,71.9438014 Z M44.4223534,70.1183134 L48.5202458,74.2162057 L47.0699724,75.6664791 L44.6636789,73.2578651 L43.9304207,73.9911233 L46.0327369,76.0934395 L44.7425738,77.3812823 L42.642578,75.278966 L41.9255628,75.9959812 L44.3341768,78.4045951 L42.8839034,79.852548 L38.7860111,75.7546557 L44.4223534,70.1183134 Z M27.3367412,66.9233032 L31.7455722,71.3298137 L30.381155,72.6942309 L28.9424839,71.2555597 L25.0047017,75.1933419 L23.4430474,73.634008 L27.38315,69.6939054 L25.9746445,68.2853999 L27.3367412,66.9233032 Z M37.6111737,66.704486 C38.6971384,65.6185213 40.3144832,65.834322 41.5466354,67.0664742 C42.6117161,68.1292345 42.764865,69.3289006 42.1429878,70.5935389 L42.1429878,70.5935389 L40.4026598,69.6259166 C40.6045378,69.2012765 40.6927145,68.7905591 40.2912788,68.386803 C40.0174672,68.1129914 39.6485177,67.9691243 39.4048717,68.2104498 C39.2447616,68.37056 39.2122754,68.6281285 39.4373579,69.0945364 L39.4373579,69.0945364 L39.8480753,69.941496 C40.6695101,71.6330949 40.5163612,72.5751924 39.7436556,73.3966272 C38.5439895,74.5962934 36.9173629,74.0649132 35.6944924,72.8397223 C34.3904066,71.5356365 34.1328381,70.0227114 35.09814,68.7163051 L35.09814,68.7163051 L36.7734958,69.7651428 C36.3697397,70.3916609 36.4277506,70.9949746 36.9823352,71.5518796 C37.3675278,71.9393926 37.7712839,72.0832597 38.0450955,71.8094481 C38.1820013,71.6725423 38.2864209,71.4219351 38.0126093,70.8905549 L38.0126093,70.8905549 L37.618135,70.0134296 C37.4325,69.6514414 36.4277506,67.9203951 37.6111737,66.704486 Z M51.5034,52.6686246 L56.8055993,57.9708239 C59.3464782,60.5140232 58.9891309,63.5862823 56.8984168,65.6746759 C55.2926742,67.2827389 53.2970981,67.6238432 51.4105825,66.6422982 C50.5195346,67.8117987 50.5357776,68.7933437 51.1762183,69.4337844 C51.5498087,69.8073748 52.0649458,70.1043907 52.7355522,70.243617 L52.7355522,70.243617 L51.6588693,73.315876 C50.3176565,73.0675892 49.0692612,72.4132259 47.9624126,71.3040569 C45.1245177,68.466162 47.3242923,65.208268 48.3220804,63.9598727 L48.3220804,63.9598727 L47.5424135,63.1802057 L43.8621998,66.8604193 L40.5880627,63.5839618 L51.5034,52.6686246 Z M21.3015157,64.0833199 C22.3225082,63.0600071 23.8447151,63.2642056 25.0026133,64.4221038 C26.0050422,65.4245327 26.1489093,66.5522653 25.5641591,67.7403292 L25.5641591,67.7403292 L23.9282508,66.8330382 C24.1185267,66.4316025 24.2020624,66.0440895 23.8238311,65.6658582 C23.5639421,65.4082897 23.2158765,65.2713839 22.9884737,65.4987867 C22.8376452,65.6496151 22.8074796,65.8932611 23.0186394,66.3318237 L23.0186394,66.3318237 L23.4061524,67.1277337 C24.178858,68.7172333 24.0349909,69.6036404 23.308694,70.376346 C22.178641,71.506399 20.6494728,71.0051845 19.4985359,69.8542476 C18.2710246,68.6267362 18.0296991,67.2043082 18.9369901,65.9767968 L18.9369901,65.9767968 L20.512567,66.9606622 C20.1343357,67.5523738 20.1877058,68.1185605 20.7098042,68.6429793 C21.0741129,69.007288 21.4523442,69.1418733 21.7099127,68.8843048 C21.8375368,68.7566807 21.9373156,68.5223166 21.679747,68.0211021 L21.679747,68.0211021 L21.308477,67.1950264 C21.1344442,66.8539221 20.1877058,65.2272955 21.3015157,64.0833199 Z M30.3980942,61.7301644 C31.9667098,60.1592283 34.5447157,60.0640904 36.4451539,61.9622082 C37.2967544,62.8161291 37.6355383,63.6862931 37.756201,64.6771198 L37.756201,64.6771198 L35.718857,64.8302687 C35.6631665,64.1921484 35.3336644,63.7512653 34.9948806,63.4124815 C34.1177553,62.5353562 32.9018461,62.6072897 32.0873726,63.4194428 C31.2752195,64.2339163 31.203286,65.4498255 32.0804113,66.3269508 C32.2567645,66.5056245 32.5862666,66.7863974 32.8438352,66.9140214 L32.8438352,66.9140214 L33.4657124,66.2944647 L32.2962119,65.1272847 L33.5121211,63.9113755 L36.292005,66.688939 L33.8277006,69.1532435 C32.6906863,69.0813099 31.5629537,68.7100399 30.6301379,67.7772241 C28.7296997,65.876786 28.8271581,63.3011005 30.3980942,61.7301644 Z M18.3708034,57.9564372 L22.2250498,61.8106836 L20.8606326,63.1751008 L18.5958858,60.9103539 L17.9067159,61.5995238 L19.8860489,63.5765364 L18.6724602,64.7878047 L16.6954476,62.8107921 L16.0202003,63.4860394 L18.2872676,65.7507862 L16.9228505,67.1128829 L13.068604,63.2563161 L18.3708034,57.9564372 Z M23.7880964,49.4835923 L25.2870989,50.9825948 L21.9696775,58.6656172 L29.5996317,55.2981442 L31.0986342,56.7948262 L27.6991935,64.6680701 L25.9054955,62.8720516 L26.4856048,61.5679659 L24.810249,59.8949305 L23.5293676,60.4982442 L21.8354484,58.804325 L21.8888184,58.8553746 L21.9666775,58.6686172 L21.7832385,58.751419 L20.0916397,57.0598202 L20.671749,55.7557344 L18.9987137,54.0826991 L17.7178323,54.6860128 L15.970543,52.9387235 L23.7880964,49.4835923 Z M51.9698079,58.7504908 L49.8025194,60.9177793 L51.4871569,62.6047373 C52.0487028,63.1639627 52.983839,63.0409795 53.5152192,62.5095993 C54.0930081,61.9318104 54.2159913,60.9966742 53.6567659,60.4351283 L53.6567659,60.4351283 L51.9698079,58.7504908 Z M13.7501165,53.3350542 L17.6043629,57.191621 L16.2422662,58.5537177 L13.9775193,56.2889709 L13.2883495,56.9804612 L15.2653621,58.9574738 L14.0540938,60.1687421 L12.0770812,58.1894091 L11.4018339,58.8646563 L13.6665807,61.1294032 L12.304484,62.4914999 L8.44791716,58.6372535 L13.7501165,53.3350542 Z M42.0081704,43.1740911 L49.9440661,51.1123072 L47.1386574,53.917716 L42.4745783,49.2559574 L41.0567911,50.676065 L45.1268382,54.7437917 L42.632368,57.2405823 L38.5623209,53.1705352 L37.1746994,54.5581567 L41.836458,59.2199153 L39.0287288,62.0276445 L31.0905127,54.0894283 L42.0081704,43.1740911 Z M28.5693575,57.8413435 L26.3951077,58.8391315 L27.5228403,59.9668641 L28.5693575,57.8413435 Z M9.25055643,48.8366543 L13.0769576,52.6630555 L11.7125405,54.0251522 L9.47795929,51.7905711 L8.7887894,52.479741 L10.7356363,54.4265879 L9.52436804,55.6378562 L7.57752111,53.6933297 L5.54017712,55.7306737 L3.95067754,54.1388537 L9.25055643,48.8366543 Z M22.7578222,52.029112 L20.5835724,53.0269001 L21.711305,54.1546326 L22.7578222,52.029112 Z M36.8315067,37.9976595 L37.8664218,39.034895 L40.1056438,41.2717966 L29.1903066,52.1871338 L25.9161695,48.9129967 L36.8315067,37.9976595 Z M16.1967856,41.8929776 L18.8444046,44.5429171 C20.4872743,46.1834663 20.4478268,48.6709751 18.8931338,50.2256681 C17.3314795,51.7873225 14.850932,51.8198086 13.2080623,50.1769389 L13.2080623,50.1769389 L10.5604433,47.5293199 L16.1967856,41.8929776 Z M16.4381111,45.0325294 L13.699995,47.7706454 L14.4239715,48.4946219 C15.2941355,49.3647859 16.3731389,49.3647859 17.201535,48.5340693 C18.0392129,47.6963914 18.0392129,46.6197085 17.1620876,45.7565058 L17.1620876,45.7565058 L16.4381111,45.0325294 Z M22.5076791,3.90161724 L38.7252156,20.1214743 L44.117912,14.7287779 L50.2137009,20.8245668 L44.823325,26.2172632 L51.5433115,32.9372497 L44.1573595,40.3232018 L31.3392636,27.5051059 L31.3601475,27.4865424 L24.8466799,20.9753952 L25.5567337,33.2899562 L28.8401526,30.0065373 L34.9359415,36.1023262 L24.0206042,47.0199839 L17.9248153,40.9218746 L16.5534368,9.8581799 L22.5076791,3.90161724 Z" id="Combined-Shape" fill="#00665D"></path>
                </g>
            </g>
        </g>
    </g>
</svg>