<?xml version="1.0" encoding="UTF-8"?>
<svg width="32px" height="27px" viewBox="0 0 32 27" version="1.1" xmlns="http://www.w3.org/2000/svg" xmlns:xlink="http://www.w3.org/1999/xlink">
    <title>243F31EC-7DE2-431F-830D-4DC677C034E4</title>
    <defs>
        <filter x="-50.0%" y="-63.2%" width="200.0%" height="226.3%" filterUnits="objectBoundingBox" id="filter-1">
            <feOffset dx="0" dy="2" in="SourceAlpha" result="shadowOffsetOuter1"></feOffset>
            <feGaussianBlur stdDeviation="2" in="shadowOffsetOuter1" result="shadowBlurOuter1"></feGaussianBlur>
            <feColorMatrix values="0 0 0 0 0   0 0 0 0 0   0 0 0 0 0  0 0 0 0.249317089 0" type="matrix" in="shadowBlurOuter1" result="shadowMatrixOuter1"></feColorMatrix>
            <feMerge>
                <feMergeNode in="shadowMatrixOuter1"></feMergeNode>
                <feMergeNode in="SourceGraphic"></feMergeNode>
            </feMerge>
        </filter>
    </defs>
    <g id="Visueel-ontwerp" stroke="none" stroke-width="1" fill="none" fill-rule="evenodd">
        <g id="Home-04" transform="translate(-318.000000, -22.000000)" fill="#FFFFFF" fill-rule="nonzero">
            <g id="Group" filter="url(#filter-1)" transform="translate(322.000000, 24.000000)">
                <path d="M23,16.625 C23.6,16.625 24,17.1 24,17.8125 C24,18.525 23.6,19 23,19 L1,19 C0.4,19 0,18.525 0,17.8125 C0,17.1 0.4,16.625 1,16.625 L23,16.625 Z M23,8.3125 C23.6,8.3125 24,8.7875 24,9.5 C24,10.2125 23.6,10.6875 23,10.6875 L1,10.6875 C0.4,10.6875 0,10.2125 0,9.5 C0,8.7875 0.4,8.3125 1,8.3125 L23,8.3125 Z M23,0 C23.6,0 24,0.475 24,1.1875 C24,1.9 23.6,2.375 23,2.375 L1,2.375 C0.4,2.375 0,1.9 0,1.1875 C0,0.475 0.4,0 1,0 L23,0 Z" id="Menu"></path>
            </g>
        </g>
    </g>
</svg>